# xmcd
#
# Track frame offsets: 
#        150
#        18441
#        32107
#        56962
#        75052
#        91291
#        119438
#        133174
#        158188
#        174172
#        188593
#
# Disc length: 2659 seconds
#
# Revision: 0
# Processed by: cddbd v1.5.2PL0 Copyright (c) Steve Scherf et al.
# Submitted via: ExactAudioCopy v1.3
#
DISCID=820a610b
DTITLE=Blues Bazar - Droga Płyta
DYEAR=2017
DGENRE=Blues
TTITLE0=Garderobiany
TTITLE1=Blues dla pionierów
TTITLE2=Włóczęga
TTITLE3=Dziadek
TTITLE4=Mogłem wszystko mieć
TTITLE5=Złoty blues
TTITLE6=Zostań
TTITLE7=Popalone mosty
TTITLE8=Otwarte okno
TTITLE9=Szpital sw. Jakuba
TTITLE10=Przejść obok
EXTD=
EXTT0=
EXTT1=
EXTT2=
EXTT3=
EXTT4=
EXTT5=
EXTT6=
EXTT7=
EXTT8=
EXTT9=
EXTT10=
PLAYORDER=
